<svg xmlns="http://www.w3.org/2000/svg" version="1.1" xmlns:xlink="http://www.w3.org/1999/xlink" xmlns:svgjs="http://svgjs.com/svgjs" width="1000" height="1000"><g transform="matrix(3.5211267605633805,0,0,3.5211267605633805,0.32069966490837487,107.36472436743719)"><svg xmlns="http://www.w3.org/2000/svg" version="1.1" xmlns:xlink="http://www.w3.org/1999/xlink" xmlns:svgjs="http://svgjs.com/svgjs" width="284" height="223"><svg width="284" height="223" viewBox="0 0 284 223" fill="none" xmlns="http://www.w3.org/2000/svg">
<path fill-rule="evenodd" clip-rule="evenodd" d="M106.198 0.352509V207.761L152.472 222.671V48.7213C152.472 40.5563 156.058 35.107 161.844 37.0063C169.37 39.1363 170.844 46.6268 170.844 54.7918V124.247C199.687 138.359 222.407 124.212 222.407 86.9725C222.407 48.7035 209.095 31.7168 169.938 18.1025C154.496 12.813 125.883 4.08001 106.216 0.352509H106.198ZM161.223 192.337L235.631 165.428C244.08 162.375 245.394 158.044 238.542 155.754C231.62 153.482 219.195 154.121 210.675 157.209L160.975 174.924V146.737L163.815 145.743C163.815 145.743 178.015 140.773 198.25 138.465C218.307 136.335 242.98 138.82 262.505 146.275C284.337 153.375 286.645 163.67 281.142 170.77C275.64 177.87 261.972 183.018 261.972 183.018L160.975 219.76V192.603L161.223 192.337ZM5.37821 162.073C14.8567 155.15 30.9027 149.648 30.9027 149.648L97.2877 125.863V153.198L49.7177 170.593C41.3752 173.788 39.9552 178.048 46.8777 180.355C53.8002 182.663 66.2252 182.13 74.5677 178.935L97.4652 170.593V195.088C96.0452 195.443 94.4477 195.62 92.8502 195.975C69.9527 199.88 45.6352 198.283 21.4952 190.295C12 187.153 -10.0001 174 5.37821 162.073Z" fill="#003399"></path>
</svg></svg></g></svg>